<svg width="44" height="39" viewBox="0 0 44 39" fill="none" xmlns="http://www.w3.org/2000/svg">
<path d="M22.0067 38.5682L3.75382 20.3153C2.29785 18.8594 1.32721 17.1667 0.841886 15.2372C0.368401 13.3078 0.37432 11.3902 0.859641 9.48438C1.34496 7.56676 2.30969 5.89773 3.75382 4.47727C5.23346 3.02131 6.92025 2.05658 8.81419 1.5831C10.72 1.09777 12.6198 1.09777 14.5138 1.5831C16.4195 2.06842 18.1122 3.03314 19.5919 4.47727L22.0067 6.82102L24.4214 4.47727C25.9129 3.03314 27.6056 2.06842 29.4996 1.5831C31.3935 1.09777 33.2874 1.09777 35.1814 1.5831C37.0872 2.05658 38.7799 3.02131 40.2595 4.47727C41.7036 5.89773 42.6684 7.56676 43.1537 9.48438C43.639 11.3902 43.639 13.3078 43.1537 15.2372C42.6802 17.1667 41.7155 18.8594 40.2595 20.3153L22.0067 38.5682ZM22.0067 33.0462L37.4896 17.5455C38.4366 16.6103 39.064 15.5154 39.3717 14.2607C39.6913 13.0059 39.6972 11.7571 39.3895 10.5142C39.0817 9.25947 38.4603 8.17637 37.5251 7.26491C36.5545 6.30611 35.4477 5.67282 34.2048 5.36506C32.9738 5.04545 31.7368 5.04545 30.4939 5.36506C29.251 5.68466 28.1324 6.32386 27.1381 7.28267L22.0067 12.272L16.8753 7.28267C15.8928 6.32386 14.7742 5.68466 13.5194 5.36506C12.2765 5.04545 11.0336 5.04545 9.79075 5.36506C8.55969 5.67282 7.45884 6.30611 6.48819 7.26491C5.55306 8.17637 4.93161 9.25947 4.62385 10.5142C4.31608 11.7571 4.322 13.0059 4.6416 14.2607C4.9612 15.5154 5.58857 16.6103 6.5237 17.5455L22.0067 33.0462Z" fill="white"/>
</svg>
