<svg width="50" height="42" viewBox="0 0 50 42" fill="none" xmlns="http://www.w3.org/2000/svg">
<path d="M25.0073 41.625L4.9292 21.5469C3.32764 19.9453 2.25993 18.0833 1.72607 15.9609C1.20524 13.8385 1.21175 11.7292 1.74561 9.63281C2.27946 7.52344 3.34066 5.6875 4.9292 4.125C6.5568 2.52344 8.41227 1.46224 10.4956 0.941407C12.592 0.407551 14.6818 0.407551 16.7651 0.941407C18.8615 1.47526 20.7235 2.53646 22.3511 4.125L25.0073 6.70312L27.6636 4.125C29.3042 2.53646 31.1662 1.47526 33.2495 0.941407C35.3328 0.407551 37.4162 0.407551 39.4995 0.941407C41.5959 1.46224 43.4578 2.52344 45.0855 4.125C46.674 5.6875 47.7352 7.52344 48.269 9.63281C48.8029 11.7292 48.8029 13.8385 48.269 15.9609C47.7482 18.0833 46.687 19.9453 45.0855 21.5469L25.0073 41.625Z" fill="#597DB3"/>
</svg>
