<svg width="44" height="39" viewBox="0 0 44 39" fill="none" xmlns="http://www.w3.org/2000/svg">
<path d="M22.0067 38.5682L3.75382 20.3153C2.29785 18.8594 1.32721 17.1667 0.841886 15.2372C0.368401 13.3078 0.37432 11.3902 0.859641 9.48438C1.34496 7.56676 2.30969 5.89773 3.75382 4.47727C5.23346 3.02131 6.92025 2.05658 8.81419 1.5831C10.72 1.09777 12.6198 1.09777 14.5138 1.5831C16.4195 2.06842 18.1122 3.03314 19.5919 4.47727L22.0067 6.82102L24.4214 4.47727C25.9129 3.03314 27.6056 2.06842 29.4996 1.5831C31.3935 1.09777 33.2874 1.09777 35.1814 1.5831C37.0872 2.05658 38.7799 3.02131 40.2595 4.47727C41.7036 5.89773 42.6684 7.56676 43.1537 9.48438C43.639 11.3902 43.639 13.3078 43.1537 15.2372C42.6802 17.1667 41.7155 18.8594 40.2595 20.3153L22.0067 38.5682Z" fill="white"/>
</svg>
