<svg width="741" height="727" viewBox="0 0 741 727" fill="none" xmlns="http://www.w3.org/2000/svg">
<g filter="url(#filter0_d_36_37)">
<path fill-rule="evenodd" clip-rule="evenodd" d="M729.88 1.73049C732.791 2.99811 735.829 6.6797 736.349 9.56766C737.748 17.3607 736.329 216.775 734.859 218.737C730.851 224.087 735.741 223.655 674.664 224.057L619.952 224.417L619.768 311.787L619.583 399.157L621.571 399.91C622.664 400.324 627.301 400.614 631.877 400.555C636.45 400.496 640.927 400.474 641.821 400.505L643.449 400.564L643.46 525.02C643.465 593.471 643.725 649.876 644.035 650.363C644.45 651.014 649.026 651.302 661.195 651.444L677.789 651.638L678.151 673.757C678.375 687.481 678.794 696.157 679.257 696.617C679.708 697.067 686.237 697.434 695.886 697.552L711.768 697.746L711.969 708.372L712.168 719H356.085H0V708.194V697.39L113.989 697.208C193.728 697.081 228.055 696.795 228.234 696.26C228.376 695.838 224.01 690.936 218.535 685.364C208.889 675.552 203.521 668.99 200.339 663.115C199.495 661.559 198.527 659.797 198.189 659.204C194.718 653.091 190.096 641.488 188.577 635.067C185.314 621.28 184.893 617.865 184.901 605.17C184.906 593.771 185.5 587.477 187.19 580.854C187.622 579.171 188.256 576.577 188.601 575.091C188.946 573.605 189.731 571.093 190.347 569.508C190.961 567.922 191.982 565.24 192.614 563.545C195.112 556.848 203.147 542.339 206.174 539.054C207.169 537.972 208.703 536.045 209.581 534.768C211.494 531.986 226.409 517.359 229.94 514.8C232.456 512.978 238.21 509.081 242.959 505.984C244.371 505.062 246.014 504.308 246.609 504.308C247.205 504.308 248.056 503.945 248.501 503.5C250.929 501.082 272.211 494.138 280.515 493.056C286.75 492.244 314.383 492.42 319.193 493.302C328.992 495.101 341.408 499.161 346.497 502.231C348.392 503.373 350.103 504.308 350.3 504.308C352.232 504.308 359.728 508.837 367.995 514.999C373.833 519.351 387.351 532.433 388.254 534.606C388.739 535.773 389.41 536.728 389.747 536.728C390.311 536.728 396.913 546.285 396.913 547.104C396.913 547.306 397.752 548.701 398.779 550.203C402.872 556.202 407.289 567.805 410.79 581.756C412.101 586.979 412.951 596.032 412.956 604.81C412.96 612.741 412.654 616.09 410.784 628.584C409.295 638.53 402.302 655.669 395.772 665.371C394.015 667.985 392.575 670.3 392.575 670.518C392.575 671.329 387.616 676.902 378.839 685.958C373.868 691.083 369.648 695.446 369.462 695.65C368.085 697.157 378.527 697.364 455.567 697.375C524.998 697.384 540.027 697.215 540.685 696.425C541.224 695.779 541.55 688.25 541.679 673.551L541.871 651.638L558.137 651.278L574.405 650.918L574.587 526.315C574.687 457.785 575.018 401.466 575.321 401.163C575.625 400.862 580.584 400.573 586.344 400.524C592.339 400.472 597.202 400.116 597.72 399.692C598.434 399.104 598.624 380.582 598.624 311.502V224.057H542.024H485.422L482.198 222.435C479.834 221.248 478.533 219.949 477.334 217.581L475.699 214.346L475.889 111.188C476.103 -4.54512 475.57 6.64847 481.056 2.56638C483.606 0.668635 725.577 -0.143373 729.88 1.73049ZM498.853 112.028V201.003H606.216H713.577V112.028V23.054H606.216H498.853V112.028ZM533.04 48.3273C533.619 49.6831 534.935 51.5643 535.964 52.5104L537.837 54.2299L535.969 55.6941C534.943 56.4988 533.623 58.3047 533.033 59.7101L531.963 62.2618L530.984 59.9452C530.448 58.6703 529.121 56.8093 528.038 55.808L526.068 53.9893L527.721 52.8356C528.63 52.1999 529.963 50.372 530.682 48.7719L531.987 45.8637L533.04 48.3273ZM555.932 51.1509C557.689 57.4026 561.971 63.14 566.175 64.8742L568.415 65.7983L566.348 66.8455C561.691 69.2062 557.65 74.5761 555.932 80.69L555.019 83.9307L554.134 81.0097C552.088 74.2527 548.714 69.5846 544.199 67.257C542.05 66.1492 541.985 66.0096 543.268 65.2729C548.323 62.3647 552.2 57.2134 554.134 50.8294L555.019 47.9084L555.932 51.1509ZM642.724 69.9686C647.239 71.7524 648.979 74.6367 654.422 89.3428L659.674 103.538L662.93 105.262C665.115 106.417 666.908 108.153 668.374 110.529L670.559 114.072L670.743 131.536C670.962 152.419 671.285 151.169 665.614 151.439L661.16 151.653L660.799 158.858C660.388 167.062 659.586 168.978 655.924 170.503C648.773 173.481 644.63 169.316 644.286 158.804L644.039 151.278L611.752 151.465L579.465 151.653L579.104 158.858C578.691 167.062 577.889 168.978 574.229 170.503C567.22 173.421 563.015 169.192 562.475 158.683L562.113 151.653L557.792 151.432C552.156 151.144 552.377 151.845 552.364 134.218C552.35 113.069 553.751 108.486 561.326 104.901C563.531 103.86 564.051 102.954 566.851 95.2823C574.661 73.8853 575.618 72.0996 580.311 70.1449C583.204 68.9416 639.721 68.7799 642.724 69.9686ZM536.451 71.7028C536.897 72.8804 538.102 74.7212 539.128 75.7941L540.993 77.7414L538.72 80.3207C537.47 81.7408 536.447 83.3759 536.447 83.9564C536.447 85.755 535.223 85.1193 534.268 82.8266C533.768 81.6233 532.533 79.9919 531.523 79.2001L529.687 77.7598L531.338 76.6079C532.245 75.9741 533.586 74.1296 534.314 72.5075L535.638 69.5607L536.451 71.7028ZM582.789 79.0678C581.499 80.126 573.319 100.913 573.319 103.132C573.319 103.468 590.562 103.744 611.638 103.744C632.712 103.744 649.955 103.483 649.955 103.164C649.955 102.46 645.663 89.8315 643.482 84.1181C640.945 77.4732 642.638 77.8076 611.556 77.8076C586.688 77.8076 584.19 77.9178 582.789 79.0678ZM83.1421 102.302C83.7394 102.686 86.2559 103.006 88.7355 103.011C92.8854 103.022 94.8414 103.336 103.023 105.306C110.761 107.168 123.731 112.379 129.034 115.755C130.795 116.876 133.588 118.603 135.244 119.593C136.897 120.583 139.108 122.143 140.157 123.058C141.206 123.973 142.878 125.159 143.872 125.698C145.756 126.715 154.699 135.896 159.031 141.26C168.823 153.385 175.191 166.884 179.903 185.513C180.303 187.098 181.182 190.179 181.855 192.358C182.528 194.536 183.35 197.454 183.686 198.841C184.019 200.228 184.619 202.66 185.015 204.244C185.988 208.122 187.111 212.674 187.904 215.952C188.263 217.438 189.104 220.598 189.771 222.977C190.439 225.354 192.271 232.163 193.84 238.106C195.411 244.049 197.362 251.344 198.175 254.315C198.989 257.287 199.97 261.015 200.354 262.6C200.739 264.185 201.347 266.616 201.709 268.003C202.068 269.39 202.68 271.984 203.067 273.768C203.455 275.55 204.163 277.982 204.642 279.171C205.436 281.148 206.417 284.888 207.097 288.537C207.245 289.328 208.395 293.706 209.655 298.262C210.916 302.818 212.225 307.681 212.564 309.068C214.45 316.753 214.87 318.138 215.523 318.794C215.971 319.244 230.677 319.694 254.704 319.992C293.156 320.469 299.131 320.787 312.687 323.082C325.035 325.171 326.271 325.426 331.846 327.044C334.829 327.91 338.407 328.865 339.799 329.168C341.191 329.471 343.305 330.215 344.498 330.823C345.691 331.43 348.945 332.664 351.727 333.566C355.98 334.942 369.318 340.834 373.055 342.985C373.651 343.329 375.279 344.177 376.671 344.874C382.917 347.99 392.312 353.253 393.298 354.186C394.817 355.623 399.747 358.779 400.471 358.779C400.803 358.779 401.496 359.286 402.011 359.905C402.527 360.524 404.763 362.205 406.979 363.642C419.473 371.734 443.762 396.884 453.253 411.552C454.983 414.225 456.627 416.415 456.905 416.415C457.184 416.415 457.816 417.306 458.31 418.395C461.133 424.625 463.931 427.612 467.882 428.619C470.006 429.161 472.229 429.87 472.827 430.195C473.422 430.522 478.14 432.126 483.309 433.761C488.479 435.396 493.113 437.248 493.611 437.878C494.308 438.76 494.515 447.503 494.515 475.963C494.515 511.747 494.559 512.926 495.914 513.648C496.786 514.115 505.309 514.394 518.603 514.394H539.894L540.282 516.375C540.918 519.632 540.842 602.572 540.201 603.553C539.734 604.27 528.868 604.421 488.324 604.274L437.039 604.09V594.002V583.916L453.644 583.724C462.779 583.615 470.528 583.253 470.865 582.915C472.124 581.66 471.47 454.449 470.196 453.047C469.174 451.921 458.471 448.114 456.33 448.114C455.851 448.114 454.079 447.488 452.394 446.724C449.326 445.331 444.679 443.819 434.508 440.904C431.527 440.048 425.996 438.418 422.218 437.283C414.119 434.847 404.641 432.446 399.083 431.422C396.895 431.02 393.643 430.392 391.853 430.03C388.648 429.379 384.126 428.58 375.585 427.158C369.853 426.205 360.807 425.103 354.981 424.649C352.396 424.449 349.631 423.98 348.836 423.609C345.735 422.161 301.509 421.57 288.107 422.797C263.478 425.051 244.178 431.103 220.397 444.027C217.355 445.68 214.23 447.607 213.456 448.309C212.68 449.011 209.313 451.322 205.975 453.448C202.634 455.571 198.276 458.801 196.289 460.625C186.86 469.274 176.577 480.293 171.706 486.964C170.513 488.597 168.561 491.18 167.368 492.705C159.513 502.741 151.958 517.828 146.766 533.846C145.546 537.61 144.255 541.339 143.897 542.131C143.54 542.923 143.083 544.545 142.88 545.734C142.209 549.685 141.6 552.202 140.964 553.659C140.616 554.451 140.144 556.72 139.913 558.702C139.683 560.682 139.171 564.897 138.772 568.068C136.689 584.694 135.847 583.446 149.343 583.716L159.417 583.916V594.002V604.09L79.7075 604.272L0 604.455V594.006V583.556H56.6147C123.185 583.556 115.836 584.852 116.55 572.989C117.055 564.59 117.908 557.497 119.179 551.137C120.865 542.68 123.159 533.917 124.413 531.125C125.174 529.431 125.797 527.412 125.797 526.642C125.797 525.871 126.413 523.854 127.167 522.158C127.919 520.464 129.252 517.293 130.126 515.114C132.386 509.485 139.145 496.017 142.056 491.34C143.413 489.161 145.234 486.08 146.102 484.495C146.973 482.911 148.309 480.966 149.074 480.174C149.839 479.38 151.559 477.273 152.9 475.491C162.099 463.24 182.331 443.042 190.865 437.586C192.655 436.443 195.839 434.128 197.942 432.446C200.046 430.761 202.055 429.381 202.409 429.381C202.763 429.381 203.51 428.926 204.068 428.369C204.996 427.445 209.926 424.724 220.508 419.296C222.694 418.173 226.273 416.547 228.461 415.682C230.648 414.817 234.477 413.169 236.969 412.019C239.462 410.87 242.022 409.93 242.658 409.93C243.294 409.93 245.809 409.303 248.246 408.539C270.22 401.643 276.324 400.924 313.048 400.924C328.756 400.924 344.371 401.183 347.75 401.499C365.932 403.199 367.399 403.386 379.923 405.607C385.018 406.511 390.938 407.507 396.733 408.434C399.019 408.8 402.272 409.449 403.963 409.875C405.652 410.301 408.255 410.961 409.746 411.339C411.238 411.716 413.758 412.344 415.349 412.732C421.638 414.266 423.525 414.804 424.307 415.285C425.273 415.878 428.002 415.136 428.002 414.28C428.002 412.614 400.987 385.873 397.153 383.744C396.425 383.338 395.4 382.581 394.874 382.061C394.349 381.539 393.689 381.113 393.409 381.113C393.128 381.113 391.856 380.222 390.584 379.132C384.884 374.253 383.169 373.151 372.694 367.628C369.91 366.16 366.983 364.555 366.186 364.061C363.07 362.124 353.799 357.884 348.899 356.155C347.341 355.606 345.715 354.899 345.284 354.581C344.587 354.07 341.454 353.045 326.062 348.291C322.217 347.104 319.282 346.483 310.879 345.083C308.692 344.718 304.951 344.036 302.566 343.569C299.577 342.983 282.762 342.634 248.547 342.449L198.866 342.181L197.684 338.413C197.033 336.34 196.237 333.509 195.912 332.122C194.782 327.283 190.99 313 189.792 309.068C189.128 306.889 188.297 303.972 187.946 302.585C185.596 293.289 184.89 290.403 184.416 288.134C184.121 286.723 183.347 283.968 182.692 282.009C181.416 278.188 178.319 266.206 176.68 258.74C176.125 256.222 175.517 253.909 175.325 253.602C175.133 253.293 173.998 249.356 172.799 244.853C171.603 240.349 170.104 234.882 169.468 232.703C168.834 230.522 168.021 227.524 167.661 226.038C166.942 223.071 165.936 219.04 164.872 214.872C164.109 211.884 163.017 207.479 162.014 203.344C156.163 179.2 149.347 162.648 142.198 155.211C141.079 154.046 139.694 152.215 139.121 151.14C137.338 147.795 122.503 136.722 114.229 132.559C109.566 130.215 103.635 128.249 96.8786 126.813C94.6921 126.348 91.9027 125.666 90.6823 125.301C89.4286 124.926 69.1825 124.636 44.2314 124.636H0V113.11V101.582L41.0291 101.593C66.2696 101.6 82.4747 101.872 83.1421 102.302ZM648.701 114.319C639.22 118.801 644.824 134.2 654.752 130.939C661.813 128.621 662.786 118.494 656.324 114.568C653.41 112.797 652.014 112.751 648.701 114.319ZM568.848 113.745C561.107 116.685 561.158 129.021 568.922 131.104C578.938 133.792 583.956 119.361 574.722 114.425C571.93 112.933 571.204 112.851 568.848 113.745ZM105.555 160.658C106.15 161.042 107.514 161.362 108.584 161.367C109.655 161.373 110.735 161.709 110.986 162.113C111.236 162.517 112.962 163.625 114.824 164.575C121.015 167.737 125.694 173.672 129.097 182.683C130.721 186.986 131.776 190.706 136.632 209.289C137.356 212.061 138.494 216.113 139.159 218.294C139.825 220.473 140.669 223.471 141.036 224.957C142.915 232.57 143.326 234.141 144.57 238.466C145.957 243.286 147.111 247.616 148.27 252.334C149.718 258.231 150.335 260.587 151.34 264.04C151.917 266.023 152.796 269.427 153.294 271.606C153.79 273.784 154.749 277.189 155.422 279.171C156.095 281.151 157.059 284.717 157.564 287.096C158.069 289.473 158.735 292.066 159.043 292.859C159.349 293.651 159.999 296.083 160.486 298.262C160.973 300.441 161.878 303.684 162.497 305.467C166.037 315.662 165.383 326.278 160.654 335.385C157.957 340.578 147.795 349.226 142.364 350.951C135.552 353.111 131 353.264 66.3322 353.505L0 353.751V342.217V330.682L67.4182 330.68C133.415 330.676 134.884 330.647 137.19 329.245C142.445 326.054 143.923 318.844 141.023 310.558C140.251 308.352 139.303 304.925 138.92 302.945C138.048 298.461 136.287 291.424 134.504 285.294C133.754 282.718 132.747 279.152 132.264 277.369C131.783 275.587 130.78 272.322 130.039 270.118C129.296 267.911 128.69 265.257 128.69 264.217C128.69 263.177 128.363 262.124 127.967 261.88C127.569 261.636 127.244 260.748 127.244 259.907C127.244 259.067 126.94 257.384 126.57 256.168C126.199 254.95 125.522 252.496 125.067 250.714C124.612 248.93 123.627 245.364 122.879 242.788C122.132 240.213 120.685 234.54 119.662 230.18C118.638 225.823 117.186 220.148 116.434 217.572C115.134 213.123 114.35 210.174 112.839 204.064C110.704 195.437 108.014 188.316 106.047 186.082C101.84 181.307 104.854 181.552 49.9206 181.552H0V170.744V159.938L52.2343 159.949C84.7109 159.956 104.88 160.225 105.555 160.658ZM598.262 536.368V650.918L609.051 651.118C617.198 651.269 619.985 651.093 620.428 650.396C621.457 648.781 621.182 423.332 620.149 422.303C619.512 421.669 616.319 421.476 608.763 421.62L598.262 421.818V536.368ZM285.937 514.306C283.551 514.725 280.297 515.26 278.706 515.496C277.117 515.732 275.165 516.206 274.37 516.549C273.574 516.893 271.135 517.815 268.946 518.598C260.48 521.627 257.151 523.021 256.023 524.01C255.377 524.574 253.06 525.928 250.872 527.015C244.769 530.054 230.55 542.473 226.553 548.254C225.594 549.641 223.834 552.074 222.641 553.659C218.522 559.13 211.544 573.963 209.76 581.036C208.163 587.37 207.964 589.498 207.676 603.368C207.483 612.728 207.675 619.165 208.222 621.739C210.499 632.437 211.388 635.944 212.267 637.683C212.794 638.725 213.687 640.911 214.249 642.539C215.488 646.12 220.751 655.063 223.544 658.327C224.658 659.628 225.57 660.925 225.574 661.21C225.583 662.246 242.664 678.717 246.089 680.992C268.683 695.997 301.769 701.748 322.447 694.261C324.237 693.615 326.261 693.08 326.945 693.075C329.598 693.051 346.425 684.903 351.963 680.959C379.716 661.197 397.146 620.313 390.333 590.951C387.352 578.106 385.511 572.524 381.945 565.545C377.358 556.562 374.003 550.92 372.523 549.696C371.804 549.101 370.412 547.481 369.427 546.094C366.951 542.603 358.733 534.674 356.282 533.412C355.169 532.837 354.258 532.067 354.258 531.7C354.258 531.332 353.038 530.473 351.546 529.789C350.055 529.106 347.859 527.877 346.666 527.057C343.753 525.055 330.566 518.717 329.313 518.717C328.765 518.717 328.114 518.392 327.869 517.997C327.624 517.6 326.632 517.277 325.666 517.277C324.7 517.277 322.196 516.628 320.106 515.836C317.86 514.986 314.525 514.391 311.964 514.383C309.579 514.378 307.138 514.047 306.542 513.65C305.252 512.79 292.207 513.206 285.937 514.306ZM494.686 559.732C494.537 577.369 494.697 582.505 495.409 582.956C496.469 583.628 514.807 583.769 516.507 583.119C517.683 582.669 518.33 540.77 517.204 537.849C516.816 536.844 515.318 536.717 505.818 536.89L494.876 537.088L494.686 559.732ZM307.265 549.696C307.861 550.08 309.162 550.404 310.156 550.415C312.505 550.44 320.161 552.841 323.808 554.695C326.604 556.117 329.738 558.204 336.084 562.867C340.05 565.78 344.915 571.836 347.737 577.371C348.934 579.715 350.342 582.145 350.871 582.774C351.401 583.402 352.238 585.375 352.732 587.159C353.228 588.941 353.935 591.395 354.306 592.613C354.678 593.83 354.981 599.48 354.981 605.17C354.981 610.86 354.678 616.509 354.306 617.727C353.935 618.943 353.226 621.397 352.73 623.181C351.567 627.359 348.086 634.402 345.667 637.47C341.34 642.961 333.193 651.014 330.625 652.338C329.11 653.119 326.7 654.469 325.273 655.336C310.062 664.583 282.871 663.232 267.139 652.45C243.851 636.487 235.113 603.09 248.209 580.11C253.257 571.257 261.483 561.222 263.696 561.222C264.007 561.222 265.091 560.456 266.105 559.519C273.75 552.456 301.329 545.873 307.265 549.696ZM285.638 573.439C268.395 582.112 260.093 599.758 265.705 615.809C280.559 658.3 342.347 640.478 332.557 596.525C328.336 577.575 302.595 564.91 285.638 573.439ZM563.343 675.196C562.753 675.784 562.475 679.199 562.475 685.858C562.475 692.52 562.753 695.933 563.343 696.521C564.597 697.77 653.618 697.77 654.872 696.521C655.784 695.612 656.149 677.678 655.299 675.471C654.722 673.974 564.84 673.704 563.343 675.196Z" fill="#F6F8FA"/>
</g>
<defs>
<filter id="filter0_d_36_37" x="-4" y="0.668549" width="744.923" height="726.331" filterUnits="userSpaceOnUse" color-interpolation-filters="sRGB">
<feFlood flood-opacity="0" result="BackgroundImageFix"/>
<feColorMatrix in="SourceAlpha" type="matrix" values="0 0 0 0 0 0 0 0 0 0 0 0 0 0 0 0 0 0 127 0" result="hardAlpha"/>
<feOffset dy="4"/>
<feGaussianBlur stdDeviation="2"/>
<feComposite in2="hardAlpha" operator="out"/>
<feColorMatrix type="matrix" values="0 0 0 0 0 0 0 0 0 0 0 0 0 0 0 0 0 0 0.25 0"/>
<feBlend mode="normal" in2="BackgroundImageFix" result="effect1_dropShadow_36_37"/>
<feBlend mode="normal" in="SourceGraphic" in2="effect1_dropShadow_36_37" result="shape"/>
</filter>
</defs>
</svg>
